<svg  fill="none" xmlns="http://www.w3.org/2000/svg">
<symbol id="logoPart1" viewBox="0 0 385 48">
<path d="M50.2439 22.2567H18.7368V13.1258H56.8262V0.50119H0.474976V47.4988H18.7368V34.8766H50.2439V22.2567Z" fill="#000055"/>
<path d="M150.356 31.7903L133.636 0.50119H112.69L139.813 47.4988H160.628L187.751 0.50119H167.073L150.356 31.7903Z" fill="#000055"/>
<path d="M232.294 36.2172H210.434V29.0996H232.294C234.644 29.0996 236.321 30.5776 236.321 32.6572C236.321 34.7392 234.644 36.2172 232.294 36.2172ZM210.434 11.7828H230.819C233.168 11.7828 234.848 13.2584 234.848 15.3381C234.848 17.42 233.168 18.898 230.819 18.898H210.434V11.7828ZM246.245 23.6329C251.006 21.314 253.242 17.6545 253.242 13.5261C253.242 5.80447 246.731 0.50119 233.907 0.50119H192.642V47.4988H234.848C248.611 47.4988 254.718 42.0605 254.718 34.2039C254.718 29.8102 252.06 25.8214 246.245 23.6329Z" fill="#000055"/>
<path d="M281.643 29.102H313.084V18.9004H281.643V13.1282H316.404V0.50119H263.381V47.5012H317.231V34.8766H281.643V29.102Z" fill="#000055"/>
<path d="M324.805 0.50119V13.1234H345.294V47.4988H363.759V13.1234H384.25V0.50119H324.805Z" fill="#000055"/>
<path d="M80.4966 28.3582L88.5167 13.23L96.5344 28.3582H80.4966ZM78.0759 0.50119L50.9508 47.4988H70.3543L74.0233 40.5778H103.01L106.679 47.4988H126.886L99.7628 0.50119H78.0759Z" fill="#000055"/>
</symbol>
</svg>
