<svg width="40" height="26" viewBox="0 0 40 26" fill="none" xmlns="http://www.w3.org/2000/svg">
<symbol id="21" viewBox="0 0 40 26">
<rect width="40" height="26" rx="2" fill="#EDEDED"/>
<path d="M35 13.6759V12.3089H32.7911V10H31.2089V12.3089H29V13.6759H31.2089V16H32.7911V13.6759H35Z" fill="#00003D"/>
<path d="M12.0371 6C12.8228 6 13.5464 6.08865 14.208 6.26594C14.8696 6.43057 15.4416 6.68385 15.924 7.02578C16.4064 7.35504 16.7786 7.76029 17.0405 8.24152C17.3161 8.72275 17.454 9.2673 17.454 9.87517C17.454 10.597 17.2886 11.2872 16.9578 11.9457C16.6407 12.6043 16.1721 13.2438 15.5519 13.8643C14.9454 14.4848 14.2011 15.0927 13.319 15.6879C12.4368 16.2705 11.4444 16.853 10.3418 17.4355H17.516V20H6V17.4355C7.00618 16.7644 7.99169 16.1122 8.95653 15.479C9.92136 14.8331 10.7759 14.2062 11.5202 13.5984C12.2783 12.9778 12.8848 12.3763 13.3396 11.7938C13.7945 11.2112 14.0219 10.635 14.0219 10.0651C14.0219 9.46992 13.8152 9.03302 13.4017 8.75441C12.9882 8.46314 12.4988 8.3175 11.9337 8.3175C11.6305 8.3175 11.3273 8.36816 11.024 8.46947C10.7346 8.55812 10.4727 8.71009 10.2384 8.92537C10.0178 9.14066 9.83866 9.43826 9.70083 9.81818C9.56299 10.1854 9.50786 10.6413 9.53543 11.1859H6.1654C6.13783 10.3754 6.26188 9.64722 6.53755 9.00136C6.827 8.35549 7.23361 7.81095 7.75738 7.36771C8.28114 6.92447 8.90828 6.58887 9.6388 6.36092C10.3693 6.12031 11.1688 6 12.0371 6Z" fill="#00003D"/>
<path d="M22.6093 20V10.749H19.1979V8.45047C19.8182 8.43781 20.3557 8.38716 20.8106 8.29851C21.2792 8.1972 21.6789 8.05789 22.0097 7.8806C22.3405 7.7033 22.6162 7.48168 22.8367 7.21574C23.0573 6.93713 23.2502 6.60787 23.4156 6.22795H26V20H22.6093Z" fill="#00003D"/>
</symbol>
</svg>
