<svg width="57" height="22" viewBox="0 0 57 22" fill="none" xmlns="http://www.w3.org/2000/svg">
<symbol id="googlePay" viewBox="0 0 57 22">
<path fill-rule="evenodd" clip-rule="evenodd" d="M9.41247 3.62414C10.7551 3.60272 12.0525 4.09558 13.0249 4.99639L15.7115 2.38414C14.0067 0.828383 11.7496 -0.025702 9.41247 0.00058947C7.66832 0.000571007 5.95841 0.471879 4.4735 1.36197C2.98858 2.25204 1.78688 3.5259 1.00252 5.04151L1.0026 5.04294C0.343333 6.31743 0 7.72437 0 9.15112C0 10.5779 0.343333 11.9848 1.0026 13.2593L1.00252 13.2626C1.78688 14.7782 2.98858 16.0521 4.4735 16.9421C5.95841 17.8322 7.66832 18.3035 9.41247 18.3035V18.3004C11.9535 18.3004 14.0915 17.4898 15.6492 16.0911L15.6636 16.091C17.4403 14.4978 18.4638 12.1438 18.4638 9.35889H18.4525C18.4542 8.73325 18.4007 8.10862 18.2926 7.49188H9.41254V11.0221H14.5058C14.4021 11.5852 14.1819 12.122 13.8586 12.5999C13.5353 13.0778 13.1158 13.4869 12.6252 13.8024V13.8133L12.6108 13.8025C11.7664 14.3564 10.679 14.6784 9.41247 14.6784C6.95775 14.6784 4.87407 13.0697 4.13525 10.9024L4.12887 10.9022C3.73446 9.76637 3.73446 8.5359 4.12887 7.40003V7.39861C4.87407 5.22976 6.95775 3.62259 9.40601 3.62259L9.41247 3.62414ZM26.9584 8.79235V3.23333V3.23178H30.4765C31.0425 3.22742 31.5972 3.38604 32.0707 3.68767C32.5443 3.98932 32.9155 4.42049 33.1377 4.92693C33.36 5.43338 33.4233 5.99246 33.3197 6.53381C33.2161 7.07519 32.9502 7.57463 32.5554 7.9693C32.2863 8.23903 31.9627 8.45146 31.6048 8.59313C31.2469 8.73482 30.8628 8.80265 30.4765 8.79235H26.9584ZM26.9584 17.1985V10.7543H30.4365C31.8704 10.7553 33.0752 10.3031 34.0507 9.39757C34.5274 8.96762 34.9078 8.44652 35.1679 7.8669C35.428 7.28727 35.5622 6.66163 35.5622 6.02918C35.5622 5.39673 35.428 4.77109 35.1679 4.19145C34.9078 3.61182 34.5274 3.09072 34.0507 2.66079C33.5714 2.21057 33.0053 1.85702 32.3851 1.62045C31.7649 1.38386 31.1026 1.26895 30.4365 1.28232H24.8539V17.1985H26.9584ZM37.8761 14.6123C37.7546 14.3798 37.692 14.1224 37.6935 13.8615C37.6935 13.2703 37.9798 12.7745 38.5523 12.3741C39.1248 11.9737 39.8374 11.7735 40.6903 11.7735C41.8651 11.7725 42.7804 12.0246 43.436 12.5297C43.4361 12.9543 43.3434 13.3742 43.1638 13.7612C42.9844 14.1483 42.7223 14.4938 42.395 14.7748C41.7664 15.3854 40.9149 15.7289 40.0266 15.7301C39.4351 15.7409 38.8579 15.5529 38.3923 15.198C38.1747 15.0456 37.9977 14.8448 37.8761 14.6123ZM44.0901 7.16204C43.1946 6.35404 41.9686 5.95005 40.412 5.95005C38.4142 5.95005 36.9057 6.66054 35.8864 8.08156L37.7415 9.21576C38.4291 8.25217 39.3592 7.77038 40.5319 7.77038C41.2826 7.76019 42.0095 8.02576 42.5677 8.51407C42.8418 8.73456 43.062 9.01158 43.2124 9.32506C43.3629 9.63855 43.4398 9.98065 43.4376 10.3266V10.7934C42.6285 10.3495 41.5986 10.1275 40.3481 10.1275C38.879 10.1264 37.7063 10.4599 36.83 11.1279C35.9536 11.7959 35.5155 12.692 35.5155 13.8164C35.5059 14.3237 35.6129 14.8266 35.8287 15.2885C36.0446 15.7504 36.3637 16.1596 36.7628 16.4862C37.5928 17.1988 38.629 17.5535 39.8636 17.5535C41.3124 17.5535 42.4712 16.9312 43.3401 15.6865H43.4329V17.1988H45.4382V10.4853C45.435 9.07781 44.9856 7.97004 44.0901 7.16204ZM57 6.30158L49.9749 22H47.8017L50.4099 16.5079L45.7884 6.30158H48.0768L51.4173 14.129H51.4621L54.7116 6.30158H57Z" fill="white"/>
</symbol>
</svg>
