<svg width="38" height="22" viewBox="0 0 38 22" fill="none" xmlns="http://www.w3.org/2000/svg">
<symbol id="masterCard" viewBox="0 0 38 22">
<path fill-rule="evenodd" clip-rule="evenodd" d="M11.3087 22C13.8478 22 16.1919 21.1859 18.0795 19.8114C15.6851 17.5963 14.1925 14.4678 14.1925 11.0001C14.1925 7.53216 15.6851 4.40367 18.0795 2.18883C16.1919 0.814134 13.8478 0 11.3087 0C5.0631 0 0 4.92495 0 11.0001C0 17.0751 5.0631 22 11.3087 22ZM26.6916 0C24.1522 0 21.8084 0.814134 19.9208 2.18883C22.3149 4.40367 23.8075 7.53216 23.8075 11.0001C23.8075 14.4678 22.3149 17.5963 19.9208 19.8114C21.8084 21.1859 24.1522 22 26.6916 22C32.9369 22 38 17.0751 38 11.0001C38 4.92495 32.9369 0 26.6916 0ZM22.6171 11.0001C22.6171 7.81428 21.2248 4.94474 19.0001 2.93597C16.7752 4.94474 15.3829 7.81428 15.3829 11.0001C15.3829 14.1857 16.7752 17.0553 19.0001 19.064C21.2248 17.0553 22.6171 14.1857 22.6171 11.0001Z" fill="#EDEDED"/>
</symbol>
</svg>
