<svg width="36" height="22" viewBox="0 0 36 22" fill="none" xmlns="http://www.w3.org/2000/svg">
<symbol id="visa" viewBox="0 0 36 22">
<path d="M36 0H0V3.16474H36V0Z" fill="#EDEDED"/>
<path d="M16.8756 6.65748L15.0033 15.3638H12.7388L14.6114 6.65748H16.8756ZM26.4024 12.2793L27.5943 9.00995L28.2799 12.2793H26.4024ZM28.9299 15.3638H31.0239L29.1946 6.65748H27.2629C26.8273 6.65748 26.4608 6.90877 26.2983 7.29592L22.9003 15.3638H25.2786L25.7506 14.0637H28.6554L28.9299 15.3638ZM23.0185 12.5215C23.0285 10.224 19.8251 10.0965 19.8465 9.07006C19.8536 8.75797 20.1525 8.42544 20.8067 8.34059C21.131 8.29902 22.0257 8.26552 23.04 8.73032L23.4367 6.88317C22.8919 6.68736 22.1908 6.4986 21.3186 6.4986C19.08 6.4986 17.5052 7.68136 17.4925 9.37632C17.4781 10.6298 18.6177 11.3288 19.4742 11.746C20.3572 12.1725 20.653 12.4468 20.649 12.8277C20.643 13.4119 19.9444 13.6706 19.2947 13.6804C18.1554 13.6981 17.4951 13.3741 16.9688 13.13L16.5578 15.0385C17.0879 15.2798 18.0645 15.4897 19.0753 15.5005C21.4551 15.5005 23.0115 14.3317 23.0185 12.5215ZM13.6399 6.65748L9.97084 15.3638H7.57749L5.77174 8.41565C5.66233 7.9883 5.567 7.83131 5.2343 7.65078C4.68946 7.35655 3.79063 7.08156 3 6.91048L3.05359 6.65748H6.90693C7.39766 6.65748 7.83926 6.98263 7.95159 7.54481L8.90539 12.5833L11.261 6.65748H13.6399Z" fill="#EDEDED"/>
<path d="M36 18.8351H0V22.0002H36V18.8351Z" fill="#EDEDED"/>
</symbol>
</svg>
