<svg width="60" height="28" viewBox="0 0 60 28" fill="none" xmlns="http://www.w3.org/2000/svg">
<symbol id="applePay" viewBox="0 0 60 28">
<path fill-rule="evenodd" clip-rule="evenodd" d="M13.4756 0C13.501 0.245482 13.512 0.492218 13.5084 0.738976C13.4268 2.0062 12.8869 3.20219 11.9872 4.10854C11.5763 4.53461 11.1212 4.90837 10.5612 5.12807C10.0821 5.31747 9.58118 5.35411 9.07634 5.39103L9.06985 5.3915L9.06822 5.39139C9.06669 5.39117 9.06516 5.39065 9.06362 5.38996C9.06209 5.38931 9.06056 5.38848 9.05902 5.38756L9.05389 5.38414C9.05109 5.38228 9.04839 5.38045 9.04577 5.37915C9.1179 2.46798 10.6026 0.584892 13.4756 0ZM17.9335 7.21739L17.7529 7.38045C17.5835 7.53299 17.4142 7.68559 17.2475 7.84129C16.4479 8.58881 15.8475 9.45806 15.6358 10.5423C15.4834 11.2544 15.4885 11.9906 15.6508 12.7005C15.813 13.4105 16.1286 14.0774 16.5758 14.6556C17.0368 15.2728 17.5862 15.7854 18.3174 16.0821C18.3691 16.1028 18.421 16.122 18.4771 16.1428C18.5141 16.1565 18.5528 16.1709 18.5945 16.1868C18.5774 16.2321 18.5609 16.2773 18.5444 16.3223L18.5073 16.425L18.5003 16.4443L18.4921 16.4672C18.4347 16.627 18.3777 16.7848 18.3126 16.94C17.717 18.3666 16.9425 19.6866 15.885 20.8317C15.6851 21.0434 15.4692 21.2399 15.2394 21.4194C14.4696 22.0376 13.6037 22.2754 12.6271 21.9901C12.1402 21.8493 11.6592 21.6914 11.1741 21.544C10.6801 21.379 10.1652 21.2829 9.6443 21.2587C8.99194 21.2435 8.39351 21.4366 7.78732 21.6553C7.3336 21.8323 6.86969 21.9825 6.39794 22.1052C5.65416 22.2811 4.98062 22.0548 4.36487 21.642C3.75886 21.2184 3.23698 20.688 2.82537 20.0775C1.75284 18.5849 0.947381 16.9215 0.443982 15.1596C-0.00775198 13.5963 -0.116403 11.9555 0.125514 10.3473C0.342905 8.91408 0.883724 7.62065 1.9017 6.55166C2.96008 5.44463 4.26379 4.98907 5.78986 5.13935C6.54996 5.21354 7.27544 5.43132 8.00282 5.64054C8.13761 5.67946 8.27377 5.71406 8.41037 5.74725L8.51586 5.77261L8.62641 5.79892C8.67717 5.81099 8.72802 5.82307 8.77879 5.83534C8.82685 5.84693 8.87481 5.85868 8.92269 5.8707C9.35252 5.96644 9.80064 5.94441 10.2187 5.80698C10.5332 5.71619 10.8455 5.61883 11.1572 5.52168L11.1591 5.52108C11.441 5.43322 11.7225 5.34553 12.0046 5.26298C12.8797 4.99218 13.8086 4.93733 14.7102 5.10321C15.8956 5.32956 16.8327 5.95916 17.6169 6.84173C17.7131 6.95206 17.8094 7.06427 17.9056 7.1765C17.9161 7.18928 17.9255 7.20296 17.9335 7.21739ZM28.9389 3.10036C27.3731 3.09188 25.8092 3.21246 24.2637 3.46081V21.8874H26.699V14.4179C27.2589 14.5558 27.9306 14.5834 28.658 14.5834C31.0375 14.5834 33.136 13.89 34.4263 12.5329C35.3778 11.5647 35.882 10.2361 35.882 8.54893C35.882 6.89125 35.2662 5.53505 34.2309 4.64962C33.109 3.65386 31.3444 3.10036 28.9389 3.10036ZM28.7138 12.6413C27.9026 12.6413 27.2301 12.5899 26.699 12.4511V5.19646C27.1185 5.089 27.9306 5.00626 28.9937 5.00626C31.6812 5.00626 33.4438 6.19509 33.4438 8.65734C33.4438 11.2309 31.6523 12.6413 28.7138 12.6413ZM44.6647 21.8856L44.4723 20.1975H44.3885C43.6323 21.2494 42.1755 22.19 40.2453 22.19C37.5032 22.19 36.1032 20.2812 36.1032 18.3439C36.1032 15.1103 39.0148 13.3366 44.248 13.3642V13.0875C44.248 11.9814 43.9401 9.98893 41.1691 9.98893C39.9096 9.98893 38.5943 10.3769 37.6427 10.9856L37.0827 9.38121C38.2026 8.66126 39.8259 8.19144 41.5327 8.19144C45.6759 8.19144 46.6833 10.9856 46.6833 13.6685V18.673C46.6833 19.8352 46.7391 20.9698 46.9066 21.8828L44.6647 21.8856ZM44.3009 15.0523C41.6145 14.9972 38.5635 15.467 38.5635 18.0672C38.5635 19.644 39.6267 20.3915 40.8871 20.3915C42.6498 20.3915 43.7736 19.2845 44.1586 18.1509C44.2453 17.9012 44.2924 17.6397 44.2981 17.3757L44.3009 15.0523ZM52.9183 16.4086L49.9519 8.49679H47.2655L52.2708 20.831C52.3834 21.1353 52.4392 21.3284 52.4392 21.4672C52.4392 21.6061 52.3593 21.7991 52.2468 22.0483C51.779 23.0989 51.07 24.0272 50.1761 24.7598C49.5411 25.2896 48.8095 25.6947 48.0208 25.9533L48.6366 28C49.2534 27.8897 50.4562 27.475 51.6589 26.4232C53.3388 24.9833 54.5415 22.6332 56.3052 18.0406L60 8.49679H57.3973L54.7061 16.3534C54.4888 16.9832 54.2945 17.6362 54.1158 18.2367C54.0197 18.5595 53.9282 18.867 53.8401 19.1476H53.7843C53.562 18.3449 53.2262 17.294 52.9183 16.4086Z" fill="white"/>
</symbol>
</svg>
